<svg xmlns="http://www.w3.org/2000/svg" width="23.061" height="24" viewBox="0 0 23.061 24">
  <g id="_1f4aa" data-name="1f4aa" transform="translate(-0.837 -0.137)">
    <path id="Path_2997" data-name="Path 2997" d="M15.977,7.595h2.545a.522.522,0,0,0,.039-.452L15.978,3.982V7.595Z" transform="translate(-4.969 -1.262)" fill="#ef9645"/>
    <path id="Path_2998" data-name="Path 2998" d="M8.876,15.011a6.175,6.175,0,0,0-.138-.654,8.3,8.3,0,0,1-.617-3.691C8.316,9.6,8.3,7.466,11.133,7.8c.747.088,1.91.623,2.576.611.381-.007.658-.777.683-1.034.034-.353-.581-.954-.838-1.044s-1.352-.424-1.8-.554c-.7-.2-.662-1.145-.706-1.481a.4.4,0,0,1,.2-.4c.141-.083.252-.005.389.084l.595.435c.334.286-.587.833-.338.924a15.24,15.24,0,0,0,1.684.535c.277.05,1.232-1.027,1.288-1.659.044-.5-2.283-2.743-3.941-3.615A2.673,2.673,0,0,0,9.611.138c-.459.021-.6.2-1.174.692C5.852,3.041,3.343,7.822,2.975,8.881a26.983,26.983,0,0,0-1.8,7.919c-.033.4-.051.791-.051,1.181.044,0-.672,3.359,0,4.031s3.578.672,3.578.672c6.718,2.68,19.193,1.98,19.193-4.859,0-8.177-12.639-7.092-15.021-2.814Z" transform="translate(0 0)" fill="#ffdc5d"/>
    <path id="Path_2999" data-name="Path 2999" d="M18.586,29.674a9.806,9.806,0,0,1-3.874-1.323.672.672,0,0,1,.722-1.133A7.6,7.6,0,0,0,20.7,28.2a5.658,5.658,0,0,0,3.478-3.091.672.672,0,1,1,1.189.626A6.94,6.94,0,0,1,21.041,29.5,6.807,6.807,0,0,1,18.586,29.674Z" transform="translate(-4.452 -8.079)" fill="#ef9645"/>
  </g>
</svg>
